<svg width="304" height="53" viewBox="0 0 304 53" fill="none" xmlns="http://www.w3.org/2000/svg">
<path d="M302.945 16.696C298.877 23.89 296.423 29.689 295.583 34.0928C295.482 34.429 295.431 34.7651 295.431 35.1013C295.431 35.572 295.583 35.8073 295.885 35.8073C296.02 35.8073 296.356 35.6392 296.894 35.303C297.465 35.0005 297.801 34.8492 297.902 34.8492C298.07 34.8492 298.154 34.95 298.154 35.1517C298.154 35.5888 297.785 36.0426 297.045 36.5132C296.306 36.9839 295.566 37.2192 294.826 37.2192C294.322 37.2192 293.952 37.0511 293.717 36.7149C293.482 36.4124 293.364 35.8745 293.364 35.1013C293.364 34.3281 293.532 33.3532 293.868 32.1766C294.204 31 294.541 30.0083 294.877 29.2015C295.213 28.3611 295.684 27.2517 296.289 25.8734C296.927 24.4951 297.297 23.6715 297.398 23.4026C298.44 20.9486 298.961 19.4862 298.961 19.0156C298.961 18.7803 298.877 18.6626 298.709 18.6626C298.608 18.6626 298.423 18.7466 298.154 18.9147C296.406 20.0913 294.557 21.9907 292.608 24.6128C290.658 27.2349 289.212 30.2941 288.271 33.7903C288.204 34.0592 287.851 34.3785 287.212 34.7483C286.573 35.0845 286.036 35.2526 285.599 35.2526C285.195 35.2526 284.993 35.1013 284.993 34.7988V34.6979L285.044 34.5971C285.985 30.1596 287.565 24.9994 289.784 19.1164C289.952 18.6794 290.036 18.3768 290.036 18.2088C290.036 18.0407 289.986 17.9566 289.885 17.9566C289.717 17.9566 289.464 18.1415 289.128 18.5113C286.977 20.999 285.077 23.4698 283.43 25.9239C281.783 28.3779 280.623 30.2437 279.951 31.5211C279.312 32.7985 278.673 33.8407 278.035 34.6475C277.396 35.4543 276.724 35.8577 276.018 35.8577C275.749 35.8577 275.614 35.7232 275.614 35.4543C275.614 35.219 275.682 34.9164 275.816 34.5466C275.984 34.1768 276.152 33.8071 276.32 33.4373C276.522 33.0675 276.64 32.849 276.673 32.7817C277.211 31.4707 278.32 28.193 280.001 22.9488C280.136 22.5454 280.203 22.2428 280.203 22.0411C280.203 21.9066 280.169 21.789 280.102 21.6881C280.069 21.5537 280.052 21.4528 280.052 21.3856C280.052 21.2511 280.102 21.0326 280.203 20.73C280.943 18.6122 281.598 17.2003 282.17 16.4943C282.741 15.7883 283.565 15.4354 284.64 15.4354C285.077 15.4354 285.33 15.5866 285.397 15.8892C282.64 21.5368 280.993 25.5709 280.455 27.9913C286.069 19.0492 290.322 14.5781 293.213 14.5781C293.885 14.5781 294.221 14.7966 294.221 15.2337C294.221 15.5362 294.104 15.8724 293.868 16.2422C290.944 21.1839 289.095 25.5373 288.322 29.3024C289.969 26.0415 291.532 23.5203 293.011 21.7386C294.524 19.9232 296.759 17.9398 299.718 15.7883C300.356 15.2841 301.197 15.032 302.239 15.032C302.911 15.032 303.247 15.2673 303.247 15.7379C303.247 15.9732 303.147 16.2926 302.945 16.696Z" fill="black"/>
<path d="M275.862 30.9652C275.828 30.9988 275.677 31.1501 275.408 31.419C275.139 31.6543 274.92 31.8392 274.752 31.9737C274.584 32.1082 274.332 32.3267 273.996 32.6292C273.693 32.8982 273.424 33.1167 273.189 33.2848C272.954 33.4529 272.668 33.6546 272.332 33.8899C271.996 34.1252 271.693 34.3101 271.424 34.4446C271.189 34.5454 270.937 34.6463 270.668 34.7471C270.399 34.848 270.147 34.8984 269.911 34.8984C269.205 34.8984 268.785 34.4782 268.651 33.6377C268.651 32.2258 269.205 29.6205 270.315 25.8218C265.81 32.0409 262.583 35.1505 260.633 35.1505C259.826 35.1505 259.423 34.5454 259.423 33.3352C259.423 31.7888 259.877 29.7046 260.784 27.0824C261.726 24.4267 262.869 22.0399 264.213 19.922C265.558 17.7705 266.735 16.6948 267.743 16.6948H267.894L268.449 16.2914C268.752 15.9552 269.222 15.7871 269.861 15.7871C270.365 15.7871 271.071 15.9216 271.979 16.1905C272.886 16.4595 273.391 16.5939 273.492 16.5939C273.626 16.5939 273.794 16.4595 273.996 16.1905C274.231 15.9216 274.5 15.7871 274.803 15.7871C275.643 15.7871 276.063 16.1569 276.063 16.8965C276.063 17.199 275.996 17.5352 275.862 17.905C275.761 18.2748 275.593 18.7118 275.357 19.216C275.156 19.6867 275.038 19.9724 275.004 20.0733C274.971 20.1405 274.803 20.2414 274.5 20.3758C274.231 20.5103 274.08 20.628 274.046 20.7288C273.307 22.8131 272.651 25.0486 272.08 27.4354C271.508 29.7886 271.222 31.2341 271.222 31.772C271.222 32.6124 271.458 33.0326 271.928 33.0326C272.399 33.0326 272.971 32.7469 273.643 32.1754C274.349 31.6039 274.954 31.0324 275.458 30.4609C275.962 29.8894 276.231 29.6037 276.265 29.6037C276.332 29.6037 276.366 29.6709 276.366 29.8054C276.366 30.3097 276.198 30.6963 275.862 30.9652ZM272.533 17.552C272.332 17.552 271.979 17.5184 271.475 17.4512C271.004 17.3839 270.601 17.3503 270.264 17.3503C269.794 17.3503 269.289 17.4175 268.752 17.552C267.911 17.7873 266.533 19.7875 264.617 23.5526C262.7 27.2841 261.742 30.0743 261.742 31.9233C261.742 32.4948 261.911 32.7805 262.247 32.7805C262.953 32.7805 264.196 31.7552 265.978 29.7046C267.793 27.6539 268.987 26.1916 269.558 25.3175C270.399 23.9729 271.172 22.5273 271.878 20.9809C272.584 19.4009 272.937 18.3588 272.937 17.8546C272.937 17.6529 272.853 17.552 272.685 17.552H272.533Z" fill="black"/>
<path d="M259.628 19.3181C259.83 20.3603 259.931 21.2007 259.931 21.8394C259.931 22.579 259.679 23.2177 259.175 23.7556C258.67 24.2598 258.015 24.6296 257.208 24.865C256.401 25.0667 255.678 25.2179 255.04 25.3188C254.401 25.386 253.796 25.4196 253.224 25.4196C252.888 25.4196 252.502 25.4196 252.065 25.4196C251.661 25.386 251.443 25.3692 251.409 25.3692C250.3 28.193 249.745 30.4118 249.745 32.0254C249.745 33.3701 250.249 34.0424 251.258 34.0424C251.964 34.0424 252.787 33.6054 253.729 32.7313C254.67 31.8237 255.494 30.9328 256.199 30.0588C256.905 29.1511 257.326 28.6973 257.46 28.6973C257.695 28.6973 257.813 28.8318 257.813 29.1007C257.813 30.042 256.889 31.353 255.04 33.0339C253.191 34.6811 251.745 35.5047 250.703 35.5047C249.863 35.5047 249.089 35.2526 248.384 34.7484C247.711 34.2105 247.375 33.3364 247.375 32.1262C247.375 31.7564 247.425 31.3194 247.526 30.8152C247.762 29.5377 248.064 28.2939 248.434 27.0837C248.837 25.8735 249.056 25.1339 249.089 24.865C248.585 24.7305 248.333 24.4615 248.333 24.0581C248.333 23.6884 248.619 23.5035 249.19 23.5035H249.543C250.888 20.8477 251.661 19.3181 251.863 18.9147C252.804 17.133 254.603 16.2422 257.258 16.2422C258.401 16.2422 259.191 17.2675 259.628 19.3181ZM257.813 21.7386C257.813 20.8981 257.729 20.1754 257.561 19.5703C257.393 18.9652 257.191 18.545 256.956 18.3096C256.754 18.0743 256.536 17.9567 256.3 17.9567C255.628 17.9567 254.821 18.6794 253.88 20.125C252.972 21.5705 252.3 22.8479 251.863 23.9573C251.93 23.9573 252.199 23.9741 252.67 24.0077C253.14 24.0413 253.544 24.0581 253.88 24.0581C255.258 24.0581 256.25 23.9069 256.855 23.6043C257.46 23.3018 257.779 22.6798 257.813 21.7386Z" fill="black"/>
<path d="M214.084 30.4615C214.084 29.8564 214.134 29.3017 214.235 28.7974C214.37 28.2932 214.538 28.041 214.739 28.041C214.975 28.041 215.143 28.5117 215.244 29.453C215.244 29.9236 215.345 30.5791 215.546 31.4196C215.748 32.26 216.084 33.2349 216.555 34.3442C217.025 35.42 217.597 36.4285 218.269 37.3698C218.942 38.3447 219.816 39.1515 220.891 39.7902C221.967 40.4625 223.127 40.7987 224.371 40.7987C224.606 40.7987 224.841 40.7819 225.077 40.7483C226.253 40.6474 227.413 40.1264 228.556 39.1851C229.699 38.2438 230.775 36.9327 231.783 35.2519C232.792 33.6047 233.733 31.907 234.607 30.1589C235.481 28.3772 236.338 26.3098 237.179 23.9566C238.019 21.6034 238.708 19.5864 239.246 17.9055C239.818 16.2247 240.423 14.3253 241.062 12.2074C241.734 10.0559 242.188 8.6104 242.423 7.87083C238.658 6.22359 235.229 4.96295 232.136 4.08891C229.077 3.18125 225.9 2.72742 222.606 2.72742C216.521 2.72742 213.479 4.49232 213.479 8.0221C213.479 9.13146 213.731 10.3249 214.235 11.6023C214.773 12.8461 215.445 14.0227 216.252 15.1321C217.093 16.2078 217.883 17.1659 218.622 18.0064C219.395 18.8468 220.152 19.5695 220.891 20.1747C221.866 21.0487 223.06 21.8555 224.472 22.5951C225.917 23.3347 226.741 23.7717 226.942 23.9061C227.211 24.0742 227.312 24.2423 227.245 24.4104C227.178 24.5449 226.976 24.5785 226.64 24.5113C223.883 23.9061 221.513 22.7464 219.53 21.0319C217.58 19.351 215.815 17.3004 214.235 14.88C212.655 12.4259 211.865 10.0055 211.865 7.6187C211.865 5.43359 212.672 3.68551 214.286 2.37444C215.899 1.02976 218.252 0.357422 221.345 0.357422C223.194 0.357422 225.127 0.575933 227.144 1.01295C229.195 1.41636 230.758 1.80295 231.834 2.17274C232.909 2.54253 234.809 3.2821 237.532 4.39146C240.255 5.46721 242.037 6.15636 242.877 6.45891C243.751 3.93763 244.306 2.66019 244.541 2.62657C244.608 2.62657 244.675 2.62657 244.743 2.62657C244.81 2.59296 244.86 2.57615 244.894 2.57615C244.961 2.57615 245.012 2.57615 245.045 2.57615C245.112 2.54253 245.18 2.52572 245.247 2.52572C245.449 2.52572 245.634 2.55934 245.802 2.62657C245.97 2.6938 246.104 2.76104 246.205 2.82827C246.339 2.89551 246.474 3.01317 246.608 3.18125C246.743 3.34934 246.827 3.4838 246.861 3.58466C246.928 3.65189 247.045 3.81997 247.214 4.08891C247.382 4.32423 247.482 4.47551 247.516 4.54274C247.55 4.64359 247.583 4.76125 247.617 4.89572C247.651 4.99657 247.684 5.09742 247.718 5.19827C247.751 5.26551 247.768 5.34955 247.768 5.4504C247.802 5.51763 247.819 5.60168 247.819 5.70253C247.819 5.837 247.785 5.95466 247.718 6.05551C247.651 6.15636 247.567 6.20678 247.466 6.20678C247.197 6.20678 246.81 5.97146 246.306 5.50083C246.171 5.29912 246.037 5.19827 245.902 5.19827C245.734 5.19827 245.549 5.34955 245.348 5.6521C245.146 5.92104 244.978 6.20679 244.844 6.50934C244.743 6.81189 244.692 7.0304 244.692 7.16487C246.575 7.97168 248.323 8.6104 249.937 9.08104C251.584 9.51806 252.945 9.73657 254.021 9.73657C255.097 9.73657 255.803 9.50125 256.139 9.03061C256.341 8.76168 256.626 8.62721 256.996 8.62721C257.366 8.62721 257.551 8.76168 257.551 9.03061C257.551 9.36678 257.315 9.77019 256.845 10.2408C256.038 11.0813 254.895 11.5015 253.416 11.5015C251.197 11.5015 248.138 10.5602 244.238 8.67764C243.835 9.85423 243.28 11.6864 242.574 14.174C241.868 16.6617 241.23 18.8468 240.658 20.7293C240.12 22.6119 239.381 24.7802 238.439 27.2342C237.498 29.6547 236.557 31.7221 235.616 33.4366C234.674 35.1174 233.498 36.6974 232.086 38.1766C230.708 39.6557 229.228 40.681 227.648 41.2525C226.774 41.5887 225.749 41.7568 224.572 41.7568C222.892 41.7568 221.261 41.4038 219.681 40.6978C218.101 39.9919 216.891 38.9498 216.051 37.5715C215.378 36.4285 214.874 35.2351 214.538 33.9913C214.235 32.7138 214.084 31.5372 214.084 30.4615Z" fill="black"/>
<path d="M202.67 16.2422C200.955 19.0996 199.358 22.3773 197.879 26.0751C196.4 29.773 195.661 32.5464 195.661 34.3954C195.661 35.0005 195.795 35.303 196.064 35.303C196.165 35.303 196.484 35.1349 197.022 34.7988C197.594 34.4626 197.93 34.2945 198.031 34.2945C198.232 34.2945 198.333 34.3954 198.333 34.5971C198.333 35.0005 197.963 35.4543 197.224 35.9585C196.484 36.4628 195.745 36.7149 195.005 36.7149C194.03 36.7149 193.543 35.9922 193.543 34.5466C193.543 33.2356 193.812 31.706 194.349 29.9579C194.887 28.2098 195.728 25.9743 196.871 23.2513C198.014 20.5283 198.585 19.15 198.585 19.1164C198.753 18.6794 198.837 18.3432 198.837 18.1079C198.837 17.9398 198.787 17.8558 198.686 17.8558C198.518 17.8558 198.148 18.1583 197.577 18.7634C196.131 20.3771 194.064 23.1337 191.374 27.0332C188.685 30.9328 187.307 33.3364 187.239 34.2441C187.206 34.4794 186.887 34.7988 186.281 35.2022C185.676 35.6392 185.172 35.8577 184.769 35.8577C184.533 35.8577 184.399 35.74 184.365 35.5047C184.432 35.6056 185.054 33.9247 186.231 30.4622C187.441 26.9996 188.298 24.4951 188.803 22.9488C188.937 22.5454 189.004 22.2428 189.004 22.0411C189.004 21.9066 188.971 21.789 188.904 21.6881C188.87 21.5537 188.853 21.4528 188.853 21.3856C188.853 21.2511 188.904 21.0326 189.004 20.73C189.778 18.5786 190.433 17.1666 190.971 16.4943C191.509 15.7883 192.332 15.4354 193.442 15.4354C193.879 15.4354 194.131 15.5866 194.198 15.8892C191.442 21.5368 189.794 25.5709 189.257 27.9913C194.803 19.0492 199.056 14.5781 202.014 14.5781C202.687 14.5781 203.023 14.7966 203.023 15.2337C203.023 15.5362 202.905 15.8724 202.67 16.2422Z" fill="black"/>
<path d="M181.794 45.791C181.492 47.5055 179.996 49.0687 177.306 50.4806C174.651 51.9261 172.129 52.6489 169.743 52.6489C167.289 52.6489 166.062 51.758 166.062 49.9763C166.062 48.1946 166.885 45.6901 168.532 42.4629C170.18 39.2693 171.558 37.0506 172.667 35.8067C172.768 35.6723 173.104 35.5042 173.676 35.3025C173.508 35.2016 173.289 35.084 173.02 34.9495C172.751 34.7814 172.516 34.6638 172.314 34.5965C172.146 34.4957 171.995 34.378 171.86 34.2435C171.726 34.1091 171.659 33.9746 171.659 33.8401C171.659 33.4704 171.81 33.1342 172.113 32.8316C172.449 32.4955 172.785 32.3274 173.121 32.3274H173.323C175.373 33.1006 177.306 34.7982 179.122 37.4204C180.937 40.0425 181.845 42.4965 181.845 44.7825C181.845 45.2531 181.828 45.5893 181.794 45.791ZM185.374 20.1748C185.374 20.4774 185.122 20.6287 184.618 20.6287H184.164C184.131 20.8304 184.047 21.2506 183.912 21.8893C183.811 22.4944 183.71 23.0659 183.61 23.6038C183.509 24.108 183.425 24.4442 183.357 24.6123C182.517 26.7638 181.34 28.495 179.828 29.8061C178.349 31.0835 176.802 31.7223 175.189 31.7223C174.247 31.7223 173.558 31.4533 173.121 30.9155C172.718 30.3776 172.516 29.5204 172.516 28.3438C172.516 25.4527 173.407 22.6625 175.189 19.9731C177.004 17.2838 178.903 15.9391 180.887 15.9391C181.055 15.9391 181.307 15.9727 181.643 16.0399C181.643 14.8297 182.08 14.2246 182.954 14.2246C183.929 14.2246 184.416 14.9978 184.416 16.5442C184.416 16.7795 184.4 17.1829 184.366 17.7544C184.332 18.3259 184.316 18.7461 184.316 19.015C184.349 19.015 184.416 19.0487 184.517 19.1159C184.618 19.1831 184.702 19.2504 184.769 19.3176C184.87 19.3848 184.971 19.4689 185.072 19.5697C185.173 19.6706 185.24 19.7714 185.274 19.8723C185.341 19.9731 185.374 20.074 185.374 20.1748ZM179.424 46.4465V45.791C179.424 44.0093 178.937 42.2276 177.962 40.4459C177.021 38.6642 175.878 37.185 174.533 36.0084C174.466 36.1093 174.046 36.6976 173.272 37.7733C172.533 38.8491 171.894 39.7904 171.356 40.5972C170.852 41.404 170.264 42.3789 169.591 43.5218C168.919 44.6984 168.398 45.7742 168.028 46.7491C167.658 47.7576 167.473 48.6148 167.473 49.3208C167.473 50.6991 168.263 51.3882 169.843 51.3882C171.558 51.3882 173.558 50.8167 175.844 49.6738C178.164 48.5308 179.357 47.455 179.424 46.4465ZM182.299 20.427C181.929 20.3597 181.71 19.8387 181.643 18.8638C181.576 17.8552 181.34 17.351 180.937 17.351C179.895 17.351 178.92 18.0233 178.012 19.368C177.105 20.7127 176.399 22.0406 175.895 23.3516C175.054 25.6376 174.634 27.4193 174.634 28.6967C174.634 29.7389 175.054 30.2599 175.895 30.2599C177.138 30.2599 178.517 29.2682 180.029 27.2848C181.542 25.2678 182.299 22.9818 182.299 20.427Z" fill="black"/>
<path d="M174.132 7.26651C174.132 7.70353 173.812 8.25821 173.173 8.93055C172.535 9.6029 172.131 10.124 171.963 10.4937C171.526 11.6031 171.056 12.225 170.551 12.3595C169.879 12.3595 169.543 11.8048 169.543 10.6954C169.543 9.98949 170.064 9.2163 171.106 8.37587C172.148 7.53545 173.056 7.11523 173.829 7.11523C173.997 7.11523 174.098 7.16566 174.132 7.26651ZM171.257 15.8893C171.19 15.9901 170.955 16.4103 170.551 17.1499C170.182 17.8895 169.862 18.5282 169.593 19.0661C169.324 19.604 168.954 20.394 168.484 21.4361C168.013 22.4782 167.593 23.4699 167.223 24.4112C166.853 25.3525 166.467 26.4786 166.063 27.7897C165.66 29.1008 165.307 30.4118 165.005 31.7229C164.971 31.8237 164.954 31.9582 164.954 32.1263C164.954 32.5297 165.122 32.7314 165.458 32.7314C165.66 32.7314 166.198 32.4793 167.072 31.975C167.98 31.4708 168.568 31.2186 168.837 31.2186C169.072 31.2186 169.207 31.2859 169.24 31.4203C169.24 31.8237 168.383 32.5801 166.669 33.6895C164.954 34.7652 163.777 35.3031 163.139 35.3031C162.5 35.3031 162.181 35.0006 162.181 34.3954C162.181 34.0929 162.248 33.7399 162.382 33.3365C162.752 32.2944 163.122 31.2186 163.492 30.1093C163.895 28.9999 164.198 28.1427 164.399 27.5376C164.601 26.9325 164.803 26.3106 165.005 25.6718C165.24 25.0331 165.408 24.5625 165.509 24.2599C165.61 23.9237 165.694 23.6044 165.761 23.3018C165.862 22.9657 165.929 22.7135 165.963 22.5454C165.996 22.3774 166.013 22.2093 166.013 22.0412C166.013 21.9067 165.979 21.7891 165.912 21.6882C165.879 21.5537 165.862 21.4529 165.862 21.3857C165.862 21.2512 165.912 21.0327 166.013 20.7301C166.753 18.6123 167.408 17.2003 167.98 16.4944C168.551 15.7884 169.392 15.4354 170.501 15.4354C170.938 15.4354 171.19 15.5867 171.257 15.8893Z" fill="black"/>
<path d="M145.996 37.7224C147.576 37.7224 149.206 37.5375 150.887 37.1677C152.601 36.7979 154.114 36.1928 155.425 35.3524C156.77 34.512 157.442 33.5539 157.442 32.4781C157.442 32.31 157.425 32.1588 157.392 32.0243C157.224 30.9149 156.417 29.9905 154.971 29.2509C153.526 28.5113 151.845 27.8894 149.929 27.3852C148.046 26.8473 146.164 26.259 144.281 25.6203C142.432 24.9815 140.852 24.0234 139.541 22.746C138.264 21.4686 137.625 19.8717 137.625 17.9556C137.625 15.5015 138.297 13.2324 139.642 11.1481C141.02 9.03026 142.785 7.28217 144.937 5.90387C147.122 4.49196 149.425 3.33217 151.845 2.42451C154.299 1.51685 156.753 0.911746 159.207 0.609193C160.653 0.407491 162.014 0.306641 163.292 0.306641C169.04 0.306641 171.914 2.206 171.914 6.00472C171.914 7.98813 170.973 9.9043 169.091 11.7532C167.208 13.6022 165.006 14.5266 162.485 14.5266C162.249 14.5266 162.065 14.493 161.93 14.4258C161.829 14.3249 161.779 14.2241 161.779 14.1232C161.779 14.056 161.796 13.9888 161.829 13.9215C161.863 13.8207 161.913 13.7534 161.981 13.7198C162.081 13.6526 162.182 13.6022 162.283 13.5686C162.384 13.5349 162.502 13.5181 162.636 13.5181C164.351 13.5181 165.981 12.8794 167.527 11.602C169.074 10.2909 169.847 8.67728 169.847 6.76111C169.847 5.78621 169.628 4.9626 169.191 4.29026C168.788 3.5843 168.216 3.04643 167.477 2.67664C166.737 2.27323 165.931 1.98749 165.056 1.8194C164.216 1.65132 163.292 1.56728 162.283 1.56728C161.779 1.56728 161.275 1.58409 160.77 1.6177C160.3 1.65132 159.829 1.70175 159.358 1.76898C156.165 2.17239 153.156 2.996 150.332 4.23983C147.542 5.45005 145.189 7.16451 143.273 9.38324C141.356 11.5683 140.398 14.0056 140.398 16.6949C140.398 18.3086 140.852 19.7037 141.76 20.8803C142.668 22.0232 143.794 22.8637 145.138 23.4015C146.517 23.9394 148.013 24.4605 149.626 24.9647C151.24 25.469 152.753 25.8892 154.165 26.2254C155.61 26.5615 156.854 27.0826 157.896 27.7886C158.938 28.4945 159.543 29.3517 159.711 30.3603L159.762 30.9654C159.762 32.3437 159.005 33.6883 157.493 34.9994C156.014 36.3105 154.064 37.3694 151.643 38.1762C149.223 39.0166 146.735 39.4369 144.18 39.4369C140.751 39.4369 139.037 38.193 139.037 35.7054C139.037 34.3607 139.491 33.6883 140.398 33.6883C140.499 33.6883 140.583 33.806 140.651 34.0413C140.718 34.243 140.802 34.5288 140.903 34.8986C141.004 35.2347 141.121 35.5205 141.256 35.7558C141.491 36.1592 141.76 36.4954 142.062 36.7643C142.399 37.0332 142.768 37.2349 143.172 37.3694C143.575 37.5039 143.995 37.5879 144.432 37.6215C144.903 37.6888 145.424 37.7224 145.996 37.7224Z" fill="black"/>
<path d="M128.492 19.3181C128.693 20.3603 128.794 21.2007 128.794 21.8394C128.794 22.579 128.542 23.2177 128.038 23.7556C127.534 24.2598 126.878 24.6296 126.071 24.865C125.264 25.0667 124.542 25.2179 123.903 25.3188C123.264 25.386 122.659 25.4196 122.088 25.4196C121.751 25.4196 121.365 25.4196 120.928 25.4196C120.524 25.386 120.306 25.3692 120.272 25.3692C119.163 28.193 118.608 30.4118 118.608 32.0254C118.608 33.3701 119.113 34.0424 120.121 34.0424C120.827 34.0424 121.651 33.6054 122.592 32.7313C123.533 31.8237 124.357 30.9328 125.063 30.0588C125.769 29.1511 126.189 28.6973 126.323 28.6973C126.559 28.6973 126.676 28.8318 126.676 29.1007C126.676 30.042 125.752 31.353 123.903 33.0339C122.054 34.6811 120.608 35.5047 119.566 35.5047C118.726 35.5047 117.953 35.2526 117.247 34.7484C116.574 34.2105 116.238 33.3364 116.238 32.1262C116.238 31.7564 116.289 31.3194 116.39 30.8152C116.625 29.5377 116.927 28.2939 117.297 27.0837C117.701 25.8735 117.919 25.1339 117.953 24.865C117.448 24.7305 117.196 24.4615 117.196 24.0581C117.196 23.6884 117.482 23.5035 118.054 23.5035H118.407C119.751 20.8477 120.524 19.3181 120.726 18.9147C121.667 17.133 123.466 16.2422 126.122 16.2422C127.265 16.2422 128.055 17.2675 128.492 19.3181ZM126.676 21.7386C126.676 20.8981 126.592 20.1754 126.424 19.5703C126.256 18.9652 126.054 18.545 125.819 18.3096C125.617 18.0743 125.399 17.9567 125.164 17.9567C124.491 17.9567 123.684 18.6794 122.743 20.125C121.836 21.5705 121.163 22.8479 120.726 23.9573C120.793 23.9573 121.062 23.9741 121.533 24.0077C122.004 24.0413 122.407 24.0581 122.743 24.0581C124.121 24.0581 125.113 23.9069 125.718 23.6043C126.323 23.3018 126.643 22.6798 126.676 21.7386Z" fill="black"/>
<path d="M116.514 20.1253C116.245 20.4951 115.876 20.8649 115.405 21.2347C114.968 21.5708 114.632 21.7389 114.397 21.7389C114.195 21.7389 114.094 21.6381 114.094 21.4364C114.094 21.3019 114.245 20.8313 114.548 20.0244C114.884 19.2176 115.052 18.663 115.052 18.3604C115.052 18.1251 114.968 18.0074 114.8 18.0074C113.623 18.0074 111.875 19.8227 109.556 23.4534C107.27 27.084 105.572 30.6306 104.463 34.0932C104.261 34.3621 103.942 34.631 103.505 34.9C103.068 35.1689 102.698 35.3034 102.395 35.3034C102.194 35.3034 102.042 35.2193 101.941 35.0513C101.941 34.1436 102.042 33.32 102.244 32.5804C102.479 31.8408 102.765 31.4038 103.101 31.2693C103.841 28.4791 104.362 26.3949 104.664 25.0166L105.169 22.8987C105.236 22.6634 105.269 22.3944 105.269 22.0919C105.269 21.9238 105.236 21.7725 105.169 21.6381C105.101 21.5036 105.068 21.3691 105.068 21.2347C105.068 21.033 105.101 20.8481 105.169 20.68C105.707 18.5621 106.244 17.1166 106.782 16.3434C107.354 15.5702 108.177 15.1836 109.253 15.1836C109.657 15.1836 109.892 15.3181 109.959 15.587C109.925 15.6878 109.673 16.2761 109.203 17.3519C108.766 18.4276 108.345 19.4361 107.942 20.3774C107.572 21.3187 107.152 22.5121 106.681 23.9576C106.211 25.4032 105.841 26.731 105.572 27.9413C106.681 25.7561 108.396 23.134 110.715 20.0749C113.035 16.9821 114.951 15.4357 116.464 15.4357C117.271 15.4357 117.674 15.94 117.674 16.9485C117.674 17.9906 117.288 19.0496 116.514 20.1253Z" fill="black"/>
<path d="M106.028 7.26651C106.028 7.70353 105.709 8.25821 105.07 8.93055C104.431 9.6029 104.028 10.124 103.86 10.4937C103.423 11.6031 102.952 12.225 102.448 12.3595C101.775 12.3595 101.439 11.8048 101.439 10.6954C101.439 9.98949 101.96 9.2163 103.002 8.37587C104.045 7.53545 104.952 7.11523 105.725 7.11523C105.894 7.11523 105.994 7.16566 106.028 7.26651ZM103.154 15.8893C103.087 15.9901 102.851 16.4103 102.448 17.1499C102.078 17.8895 101.759 18.5282 101.49 19.0661C101.221 19.604 100.851 20.394 100.38 21.4361C99.9097 22.4782 99.4895 23.4699 99.1197 24.4112C98.7499 25.3525 98.3633 26.4786 97.9599 27.7897C97.5565 29.1008 97.2035 30.4118 96.901 31.7229C96.8674 31.8237 96.8505 31.9582 96.8505 32.1263C96.8505 32.5297 97.0186 32.7314 97.3548 32.7314C97.5565 32.7314 98.0944 32.4793 98.9684 31.975C99.8761 31.4708 100.464 31.2186 100.733 31.2186C100.969 31.2186 101.103 31.2859 101.137 31.4203C101.137 31.8237 100.279 32.5801 98.565 33.6895C96.8505 34.7652 95.674 35.3031 95.0352 35.3031C94.3965 35.3031 94.0771 35.0006 94.0771 34.3954C94.0771 34.0929 94.1444 33.7399 94.2788 33.3365C94.6486 32.2944 95.0184 31.2186 95.3882 30.1093C95.7916 28.9999 96.0942 28.1427 96.2959 27.5376C96.4976 26.9325 96.6993 26.3106 96.901 25.6718C97.1363 25.0331 97.3044 24.5625 97.4052 24.2599C97.5061 23.9237 97.5901 23.6044 97.6574 23.3018C97.7582 22.9657 97.8254 22.7135 97.8591 22.5454C97.8927 22.3774 97.9095 22.2093 97.9095 22.0412C97.9095 21.9067 97.8759 21.7891 97.8086 21.6882C97.775 21.5537 97.7582 21.4529 97.7582 21.3857C97.7582 21.2512 97.8086 21.0327 97.9095 20.7301C98.6491 18.6123 99.3046 17.2003 99.8761 16.4944C100.448 15.7884 101.288 15.4354 102.397 15.4354C102.834 15.4354 103.087 15.5867 103.154 15.8893Z" fill="black"/>
<path d="M94.4793 15.6374C94.3784 15.94 94.0086 16.9485 93.3699 18.663C92.7312 20.3774 92.2101 21.823 91.8067 22.9996C91.2016 24.714 90.5461 26.7983 89.8401 29.2523C89.1678 31.7064 88.8316 33.2023 88.8316 33.7402C88.8316 33.841 88.8652 33.8915 88.9325 33.8915C89.2014 33.8915 89.8737 33.4713 90.9495 32.6308C92.0588 31.7904 92.8152 31.3702 93.2186 31.3702C93.4876 31.3702 93.622 31.4542 93.622 31.6223C93.622 31.8576 93.2354 32.2442 92.4623 32.7821C91.7227 33.32 90.8655 33.8915 89.8906 34.4966C88.9157 35.0681 88.3778 35.3874 88.2769 35.4547C88.0416 35.6564 87.6886 35.9925 87.218 36.4632C86.781 36.9674 86.3608 37.3708 85.9574 37.6734C85.5876 38.0096 85.2514 38.1776 84.9489 38.1776C84.5118 38.1776 84.2933 37.9927 84.2933 37.623C84.2933 37.3876 84.5623 37.0179 85.1001 36.5136C85.638 36.043 85.991 35.6227 86.1591 35.253C86.7306 33.8747 87.8735 29.8574 89.588 23.2013C88.008 25.5544 85.9069 28.1934 83.2848 31.1181C80.6963 34.0091 78.7465 35.4547 77.4354 35.4547C76.9648 35.4547 76.7295 35.1521 76.7295 34.547C76.7295 34.0427 76.9144 33.32 77.2842 32.3787C77.2842 32.3451 77.6876 31.4374 78.4944 29.6557C79.3012 27.874 79.9399 26.3444 80.4106 25.067C80.9148 23.7559 81.1669 22.8147 81.1669 22.2432C81.1669 22.0751 81.1333 21.9238 81.0661 21.7893C80.9989 21.6213 80.9652 21.4868 80.9652 21.3859C80.9652 21.3523 80.9989 21.1674 81.0661 20.8313C81.6376 18.6798 82.1754 17.2678 82.6797 16.5955C83.184 15.8896 84.0244 15.5366 85.201 15.5366C85.6716 15.5366 85.9574 15.6878 86.0582 15.9904C82.0242 25.9074 80.0071 31.1013 80.0071 31.5719C80.0071 31.7064 80.0576 31.7736 80.1584 31.7736C80.2929 31.7736 80.6963 31.5047 81.3686 30.9668C84.7303 28.3783 87.6886 24.7476 90.2435 20.0749C90.2771 19.0327 90.5965 17.957 91.2016 16.8476C91.8067 15.7383 92.6976 15.1836 93.8742 15.1836C94.244 15.1836 94.4457 15.3349 94.4793 15.6374Z" fill="black"/>
<path d="M78.5176 20.0733C78.484 20.1405 78.3159 20.2414 78.0134 20.3758C77.7444 20.5103 77.5932 20.628 77.5596 20.7288C76.1813 23.9897 75.1727 26.4101 74.534 27.9901C73.8953 29.5365 73.1221 31.6543 72.2144 34.3437C71.3068 37.0331 70.584 39.5543 70.0461 41.9075C69.9117 42.4454 69.8444 42.916 69.8444 43.3195C69.8444 43.9246 70.0293 44.2271 70.3991 44.2271C71.0379 44.2271 71.9791 43.622 73.223 42.4118C74.5004 41.2352 75.1896 40.6469 75.2904 40.6469C75.4585 40.6469 75.5425 40.7646 75.5425 40.9999C75.5425 41.2016 75.4753 41.4201 75.3408 41.6554C75.24 41.8907 75.1559 42.0252 75.0887 42.0588C71.7942 44.8826 69.5083 46.2946 68.2308 46.2946C67.5585 46.2946 67.1719 45.8743 67.071 45.0339C67.071 42.8488 69.0544 36.5288 73.0213 26.0739C72.0127 27.3514 70.9706 28.5952 69.8949 29.8054C68.8191 31.0156 67.5081 32.2594 65.9617 33.5369C64.4489 34.7807 63.2555 35.4026 62.3815 35.4026C61.6083 35.4026 61.2217 34.8816 61.2217 33.8395C61.2217 32.3603 61.7932 30.2592 62.9361 27.5363C64.1127 24.7797 65.491 22.292 67.071 20.0733C68.651 17.8209 69.9621 16.6948 71.0042 16.6948H71.1555L71.7102 16.2914C72.0127 15.9552 72.4834 15.7871 73.1221 15.7871C73.66 15.7871 74.3659 15.9216 75.24 16.1905C76.114 16.4595 76.6015 16.5939 76.7023 16.5939C76.8368 16.5939 77.0217 16.4595 77.257 16.1905C77.5259 15.9216 77.8117 15.7871 78.1142 15.7871C79.0219 15.7871 79.4757 16.2073 79.4757 17.0477C79.4757 17.6865 79.1564 18.695 78.5176 20.0733ZM75.7442 17.552C75.5425 17.552 75.1895 17.5184 74.6853 17.4512C74.181 17.3503 73.7776 17.2999 73.4751 17.2999C72.9708 17.2999 72.4666 17.3839 71.9623 17.552C71.5253 17.6529 70.6681 18.6277 69.3906 20.4767C68.1132 22.3256 66.8861 24.4267 65.7096 26.7799C64.5666 29.1331 63.9951 30.898 63.9951 32.0746C63.9951 32.5452 64.1464 32.7805 64.4489 32.7805C65.1549 32.7805 66.3987 31.8392 68.1804 29.9567C69.9957 28.0405 71.3572 26.4941 72.2649 25.3175C73.2398 23.8384 74.1138 22.3424 74.887 20.8297C75.6938 19.2833 76.0972 18.2748 76.0972 17.8041C76.0972 17.636 76.03 17.552 75.8955 17.552H75.7442Z" fill="black"/>
<path d="M61.2251 19.3181C61.4268 20.3603 61.5276 21.2007 61.5276 21.8394C61.5276 22.579 61.2755 23.2177 60.7713 23.7556C60.267 24.2598 59.6115 24.6296 58.8047 24.865C57.9978 25.0667 57.2751 25.2179 56.6364 25.3188C55.9976 25.386 55.3925 25.4196 54.821 25.4196C54.4849 25.4196 54.0983 25.4196 53.6613 25.4196C53.2579 25.386 53.0393 25.3692 53.0057 25.3692C51.8964 28.193 51.3417 30.4118 51.3417 32.0254C51.3417 33.3701 51.8459 34.0424 52.8544 34.0424C53.5604 34.0424 54.384 33.6054 55.3253 32.7313C56.2666 31.8237 57.0902 30.9328 57.7961 30.0588C58.5021 29.1511 58.9223 28.6973 59.0568 28.6973C59.2921 28.6973 59.4098 28.8318 59.4098 29.1007C59.4098 30.042 58.4853 31.353 56.6364 33.0339C54.7874 34.6811 53.3419 35.5047 52.2998 35.5047C51.4593 35.5047 50.6861 35.2526 49.9802 34.7484C49.3078 34.2105 48.9717 33.3364 48.9717 32.1262C48.9717 31.7564 49.0221 31.3194 49.123 30.8152C49.3583 29.5377 49.6608 28.2939 50.0306 27.0837C50.434 25.8735 50.6525 25.1339 50.6861 24.865C50.1819 24.7305 49.9298 24.4615 49.9298 24.0581C49.9298 23.6884 50.2155 23.5035 50.787 23.5035H51.14C52.4847 20.8477 53.2579 19.3181 53.4596 18.9147C54.4008 17.133 56.1993 16.2422 58.8551 16.2422C59.9981 16.2422 60.7881 17.2675 61.2251 19.3181ZM59.4098 21.7386C59.4098 20.8981 59.3257 20.1754 59.1576 19.5703C58.9896 18.9652 58.7879 18.545 58.5525 18.3096C58.3508 18.0743 58.1323 17.9567 57.897 17.9567C57.2247 17.9567 56.4179 18.6794 55.4766 20.125C54.5689 21.5705 53.8966 22.8479 53.4596 23.9573C53.5268 23.9573 53.7957 23.9741 54.2664 24.0077C54.737 24.0413 55.1404 24.0581 55.4766 24.0581C56.8549 24.0581 57.8466 23.9069 58.4517 23.6043C59.0568 23.3018 59.3761 22.6798 59.4098 21.7386Z" fill="black"/>
<path d="M46.5423 34.0914C46.5423 33.7552 46.5087 33.3518 46.4415 32.8812C46.4079 32.3769 46.391 32.0072 46.391 31.7718C46.391 31.5701 46.4079 31.4189 46.4415 31.318C46.5087 31.2172 46.5928 31.1667 46.6936 31.1667C46.8617 31.1667 47.0298 31.2844 47.1979 31.5197C47.3659 31.755 47.45 32.0072 47.45 32.2761C47.45 32.4106 47.45 32.545 47.45 32.6795C47.4836 32.814 47.5004 32.9484 47.5004 33.0829C47.5004 33.1837 47.5004 33.3014 47.5004 33.4359C47.5004 33.5703 47.5004 33.688 47.5004 33.7889C47.5004 36.2765 47.0466 38.0918 46.1389 39.2348C45.2649 40.3778 44.2732 40.9493 43.1638 40.9493C39.4659 40.9493 33.4149 35.7555 25.0106 25.3678C23.9349 27.7882 22.8423 30.0069 21.733 32.024C20.6236 34.0074 19.4134 35.8563 18.1023 37.5708C16.8249 39.2852 15.4634 40.6299 14.0179 41.6048C12.6059 42.5797 11.2108 43.0672 9.83254 43.0672C7.21041 43.0672 4.70594 41.3695 2.31913 37.9742C1.00807 36.1252 0.352539 33.7552 0.352539 30.8642C0.352539 30.2255 0.402965 29.6708 0.503816 29.2001C0.638284 28.6959 0.806369 28.4437 1.00807 28.4437C1.27701 28.4437 1.44509 28.9144 1.51233 29.8557C1.51233 30.3263 1.61318 30.9818 1.81488 31.8223C2.01658 32.6627 2.35275 33.6376 2.82339 34.7469C3.29403 35.8227 3.86552 36.8312 4.53786 37.7725C5.2102 38.7474 6.08424 39.5542 7.15999 40.1929C8.26935 40.8652 9.44594 41.2014 10.6898 41.2014C10.9251 41.2014 11.1436 41.1846 11.3453 41.151C15.2449 40.7812 19.3293 34.9318 23.5987 23.6029L22.7415 22.544C22.6406 22.4095 22.5902 22.1742 22.5902 21.838C22.5902 21.4682 22.6406 21.1152 22.7415 20.7791C22.8759 20.4429 23.0272 20.2748 23.1953 20.2748C23.3298 20.2748 23.4474 20.342 23.5483 20.4765L24.4055 21.485C25.3468 18.8629 26.3889 15.6693 27.5319 11.9042C28.7085 8.10545 29.3472 6.07162 29.4481 5.80269C29.717 5.09673 30.2213 4.74375 30.9608 4.74375C31.5659 4.74375 31.8685 5.01269 31.8685 5.55056C31.8685 5.61779 31.8517 5.68503 31.8181 5.75226C31.8181 5.78588 31.8181 5.8363 31.8181 5.90354C30.3725 11.2486 28.574 16.6274 26.4225 22.0397C28.6413 21.9052 30.6751 21.6867 32.524 21.3842C34.4066 21.048 36.037 20.6614 37.4153 20.2244C38.7936 19.7537 39.987 19.2495 40.9955 18.7116C42.0376 18.1401 42.8781 17.535 43.5168 16.8963C44.1555 16.2576 44.6262 15.6189 44.9287 14.9801C45.2313 14.3078 45.3825 13.6186 45.3825 12.9127C45.3825 10.425 43.7353 8.1895 40.4408 6.20609C37.18 4.22269 33.1964 3.23098 28.49 3.23098C25.4981 3.23098 22.6574 3.58396 19.9681 4.28992C17.3123 4.96226 15.144 5.93716 13.4632 7.2146C11.8159 8.45843 10.9923 9.83673 10.9923 11.3495C10.9923 13.1648 12.2362 15.0138 14.7238 16.8963C15.3289 17.3669 15.6315 17.6695 15.6315 17.804C15.6315 17.9048 15.5474 17.9552 15.3793 17.9552C15.144 17.9552 14.791 17.8712 14.3204 17.7031C13.8834 17.535 13.564 17.3669 13.3623 17.1989C10.2023 14.8793 8.62233 12.6438 8.62233 10.4923C8.62233 9.21481 9.17701 8.03822 10.2864 6.96247C11.4293 5.85311 12.9421 4.94545 14.8247 4.2395C16.7072 3.49992 18.8587 2.92843 21.2791 2.52503C23.6996 2.12162 26.2208 1.91992 28.843 1.91992C31.9357 1.91992 34.7091 2.20567 37.1632 2.77715C39.6508 3.31503 41.6511 4.0546 43.1638 4.99588C44.7102 5.93715 45.87 6.99609 46.6432 8.17269C47.45 9.31567 47.8534 10.5427 47.8534 11.8538C47.8534 13.2657 47.3828 14.644 46.4415 15.9886C45.5002 17.3333 44.1387 18.5603 42.357 19.6697C40.6089 20.7455 38.323 21.6195 35.4991 22.2918C32.6753 22.9306 29.5489 23.2499 26.12 23.2499C26.0528 23.2499 25.9855 23.2499 25.9183 23.2499V23.3003C34.4234 33.6544 40.4913 38.9995 44.1219 39.3357H44.2732C45.08 39.3357 45.6515 38.8146 45.9876 37.7725C46.3574 36.7303 46.5423 35.5033 46.5423 34.0914Z" fill="black"/>
</svg>
